# xmcd
#
# Track frame offsets:
#	150
#	21095
#	42753
#	62648
#	80321
#	96588
#	121678
#	136895
#	155047
#	175749
#	197856
#	217311
#	235481
#	243967
#
# Disc length: 3441 seconds
#
# Revision: 1
# Processed by: cddbd v1.5.1PL2 Copyright (c) Steve Scherf et al.
# Submitted via: EasyCDDAExtractor 9.0.0.1
#
DISCID=c20d6f0e
DTITLE=Raymond Froggatt - Warm Days summer Nights
DYEAR=2005
DGENRE=Country
TTITLE0=Warm Days Summer Nights
TTITLE1=A matter of fact
TTITLE2=if you gave to me
TTITLE3=time blows the years away
TTITLE4=you don't have to stay with me
TTITLE5=A soldier
TTITLE6=them old streets of mine
TTITLE7=Barefoot in the dark
TTITLE8=happy birthday
TTITLE9=if you were the sea
TTITLE10=that's when i'll stop loving you
TTITLE11=You're still my girl
TTITLE12=i got a gal
TTITLE13=Fly to barcelona
EXTD=
EXTT0=
EXTT1=
EXTT2=
EXTT3=
EXTT4=
EXTT5=
EXTT6=
EXTT7=
EXTT8=
EXTT9=
EXTT10=
EXTT11=
EXTT12=
EXTT13=
PLAYORDER=
